<svg width="127" height="34" viewBox="0 0 127 34" fill="none" xmlns="http://www.w3.org/2000/svg">
<g clip-path="url(#clip0_46_63)">
<path d="M0 0H21.357V6.15882H13.9474V27.8647H7.21791V6.15882H0V0Z" fill="white"/>
<path d="M35.3412 7.02225V13.2176H34.7373C33.1882 13.2176 31.5629 13.6297 30.2028 14.6079V27.8647H23.4759V7.21007H30.2028V8.7126C31.6023 7.66135 32.8495 7.21007 34.6638 7.02225H35.3439H35.3412Z" fill="white"/>
<path d="M43.6199 5.03192H37.0794V0H43.6199V5.03192ZM37.0794 7.21007H43.6199V27.8647H37.0794V7.21007Z" fill="white"/>
<path d="M58.5861 28.1646C56.4304 28.1646 54.3903 27.3377 53.1825 26.023V32.5575H46.6814V7.21007H53.1825V9.0491C54.28 7.84656 56.2834 6.9466 58.7778 6.87095C64.2969 6.71966 68.3798 10.6273 68.4533 17.6861C68.5662 24.9718 64.1813 28.162 58.5887 28.162L58.5861 28.1646ZM57.4912 22.418C59.7965 22.5302 62.1018 21.2911 62.1018 17.4982C62.1018 14.0445 59.8727 12.6176 57.7931 12.6176C55.2594 12.6176 53.4083 14.7566 53.4083 18.1008C53.4083 20.279 55.1465 22.2693 57.4912 22.418Z" fill="white"/>
<path d="M78.7327 26.023C78.7327 30.0402 77.7874 32.294 75.1802 33.3844C72.9878 34.2843 70.4173 34.0991 68.2642 33.46L68.5662 28.016C69.3985 28.3159 70.6063 28.4672 71.0973 28.1673C72.0425 27.7916 72.1948 26.8525 72.1948 25.2744V7.21007H78.7327V26.023ZM78.7327 5.03192H72.1948V0H78.7327V5.03192Z" fill="white"/>
<path d="M92.1865 28.3525C85.5725 28.3525 80.8857 24.0327 80.8857 17.5008C80.8857 10.969 85.9874 6.64923 92.1865 6.64923C98.3857 6.64923 103.487 10.7055 103.487 17.5008C103.487 24.2962 98.8005 28.3525 92.1865 28.3525ZM92.113 22.418C94.6441 22.418 96.9521 20.8033 96.9521 17.4982C96.9521 14.1932 94.6468 12.5785 92.113 12.5785C89.5793 12.5785 87.4262 14.3419 87.4262 17.4982C87.4262 20.6546 89.6554 22.418 92.113 22.418Z" fill="white"/>
<path d="M112.674 23.0936L104.548 7.21007H112.031L116.114 15.6957L119.667 7.21007H127L115.245 33.4965L108.668 31.6575L112.674 23.0962V23.0936Z" fill="white"/>
</g>
<defs>
<clipPath id="clip0_46_63">
<rect width="127" height="34" fill="white"/>
</clipPath>
</defs>
</svg>
