<?xml version="1.0" encoding="UTF-8"?>
<svg id="_레이어_2" data-name="레이어 2" xmlns="http://www.w3.org/2000/svg" viewBox="0 0 483.69 130.34">
  <defs>
    <style>
      .cls-1 {
        fill: #3677f6;
        stroke-width: 0px;
      }
    </style>
  </defs>
  <g id="_레이어_1-2" data-name="레이어 1">
    <g>
      <path class="cls-1" d="M0,0h81.34v23.61h-28.22v83.21h-25.63V23.61H0V0Z"/>
      <path class="cls-1" d="M134.6,26.92v23.75h-2.3c-5.9,0-12.09,1.58-17.27,5.33v50.82h-25.62V27.64h25.62v5.76c5.33-4.03,10.08-5.76,16.99-6.48h2.59Z"/>
      <path class="cls-1" d="M166.13,19.29h-24.91V0h24.91v19.29ZM141.22,27.64h24.91v79.18h-24.91V27.64Z"/>
      <path class="cls-1" d="M223.13,107.97c-8.21,0-15.98-3.17-20.58-8.21v25.05h-24.76V27.64h24.76v7.05c4.18-4.61,11.81-8.06,21.31-8.35,21.02-.58,36.57,14.4,36.85,41.46.43,27.93-16.27,40.16-37.57,40.16ZM218.96,85.94c8.78.43,17.56-4.32,17.56-18.86,0-13.24-8.49-18.71-16.41-18.71-9.65,0-16.7,8.2-16.7,21.02,0,8.35,6.62,15.98,15.55,16.55Z"/>
      <path class="cls-1" d="M299.86,99.76c0,15.4-3.6,24.04-13.53,28.22-8.35,3.45-18.14,2.74-26.34.29l1.15-20.87c3.17,1.15,7.77,1.73,9.64.58,3.6-1.44,4.18-5.04,4.18-11.09V27.64h24.9v72.12ZM299.86,19.29h-24.9V0h24.9v19.29Z"/>
      <path class="cls-1" d="M351.1,108.69c-25.19,0-43.04-16.56-43.04-41.6s19.43-41.6,43.04-41.6,43.04,15.55,43.04,41.6-17.85,41.6-43.04,41.6ZM350.82,85.94c9.64,0,18.43-6.19,18.43-18.86s-8.78-18.86-18.43-18.86-17.85,6.76-17.85,18.86,8.49,18.86,17.85,18.86Z"/>
      <path class="cls-1" d="M429.13,88.53l-30.95-60.89h28.5l15.55,32.53,13.53-32.53h27.93l-44.77,100.77-25.05-7.05,15.26-32.82Z"/>
    </g>
  </g>
</svg>