<?xml version="1.0" encoding="UTF-8"?>
<svg id="_레이어_2" data-name="레이어 2" xmlns="http://www.w3.org/2000/svg" viewBox="0 0 1086.59 744.57">
  <defs>
    <style>
      .cls-1 {
        fill: none;
      }

      .cls-2 {
        fill: #161616;
      }
    </style>
  </defs>
  <g id="_迹_1" data-name="卵迹_1">
    <g>
      <path class="cls-1" d="M528.29,505.67c-73.66,0-133.38-59.72-133.38-133.38,0-22.19,5.42-43.11,15.01-61.51l-75.09-75.09c-27.3,38.6-43.35,85.73-43.35,136.61,0,130.79,106.03,236.82,236.82,236.82,50.88,0,98.01-16.05,136.61-43.35l-75.09-75.09c-18.41,9.58-39.32,15.01-61.51,15.01Z"/>
      <path class="cls-2" d="M558.29,56.69c-71.7,0-140.05,17-202.39,42.93l65.44,65.44c38.66-27.45,85.92-43.59,136.95-43.59,130.79,0,236.82,106.03,236.82,236.82,0,51.03-16.14,98.29-43.59,136.95l83.17,83.17c151.12-87.05,251.9-213.51,251.9-220.12,0-8.1-236.52-301.59-528.29-301.59Z"/>
      <path class="cls-2" d="M721.52,509.24l-75.06-75.06-180.07-180.07-75.06-75.06-65.44-65.44L212.28,0l-56.57,56.57,94.28,94.28C99.93,235.67,0,359.13,0,372.28c0,22.27,236.52,301.59,528.29,301.59,71.17,0,139.05-17.35,201.01-43.72l114.41,114.41,56.57-56.57-95.6-95.6-83.17-83.17ZM528.29,609.1c-130.79,0-236.82-106.03-236.82-236.82,0-50.88,16.05-98.01,43.35-136.61l75.09,75.09c-9.58,18.41-15.01,39.32-15.01,61.51,0,73.66,59.72,133.38,133.38,133.38,22.19,0,43.11-5.42,61.51-15.01l75.09,75.09c-38.6,27.31-85.73,43.35-136.61,43.35Z"/>
    </g>
  </g>
</svg>